<?xml version="1.0" encoding="UTF-8"?>
<svg width="24px" height="24px" viewBox="0 0 24 24" version="1.1" xmlns="http://www.w3.org/2000/svg" xmlns:xlink="http://www.w3.org/1999/xlink">
    <title>图标</title>
    <g id="图标" stroke="none" stroke-width="1" fill="none" fill-rule="evenodd">
        <rect id="矩形" fill="#E34D59" x="0" y="0" width="24" height="24" rx="1"></rect>
        <g id="1.Base基础/3.Icon图标/箭头/caret-up" transform="translate(9, 3)" fill="#FFFFFF">
            <path d="M3.0878618,0.107623504 C3.1969346,-0.0358743402 3.41508072,-0.0358745848 3.52415351,0.107623271 L5.9449686,3.69506983 C6.07978999,3.87244286 5.95152496,4.12556351 5.72682246,4.1255635 L4.75282113,4.12475394 C4.7560541,4.1477264 4.75772596,4.17120007 4.75772596,4.19506423 C4.75772596,4.21778823 4.75617682,4.24048579 4.75308932,4.26299906 L4.29984578,7.56793483 C4.26589329,7.81550774 4.05437263,8 3.80448242,8 L1.32350964,8 C1.04736727,8 0.823509641,7.77614237 0.823509641,7.5 C0.823509641,7.477276 0.825058779,7.45457844 0.828146281,7.43206517 L1.28138982,4.1271294 L1.281,4.125 L0.273177211,4.12556319 C0.070944934,4.12556318 -0.0531726625,3.92053566 0.0223110397,3.75022503 L0.0550315628,3.6950695 Z" id="caret-up"></path>
        </g>
        <g id="TOP" transform="translate(4.504, 13.248)" fill="#FFFFFF" fill-rule="nonzero">
            <path d="M0.0264104469,0.688526988 L0.0831377189,0.208526994 C0.0950358334,0.10785064 0.180378504,0.032 0.28175549,0.032 L4.62297178,0.032 C4.73342873,0.032 4.82297178,0.121543051 4.82297178,0.232000003 C4.82297178,0.239844676 4.82251024,0.247682555 4.82158955,0.255473012 L4.76486228,0.735473006 C4.75296417,0.83614936 4.6676215,0.912 4.56624451,0.912 L2.99341287,0.912 C2.89218204,0.912 2.80691397,0.987638261 2.79484043,1.08814653 L2.22115957,5.86385347 C2.20908603,5.96436174 2.12381796,6.04 2.02258713,6.04 L1.48146279,6.04 C1.37100584,6.04 1.28146279,5.95045695 1.28146279,5.84 C1.28146279,5.83202749 1.2819395,5.82406212 1.28289036,5.81614652 L1.84510964,1.13585348 C1.85828356,1.02618495 1.78005921,0.926601476 1.67039068,0.913427566 C1.66247508,0.912476706 1.65450971,0.912 1.64653721,0.912 L0.225028218,0.912 C0.114571266,0.912 0.0250282151,0.822456949 0.0250282151,0.711999997 C0.0250282151,0.704155324 0.0254897565,0.696317445 0.0264104469,0.688526988 Z" id="路径"></path>
            <path d="M8.392,0 C9.096,0.00533333333 9.61333333,0.158666667 9.944,0.46 C10.2746667,0.761333333 10.44,1.23466667 10.44,1.88 C10.44,2.04533333 10.4266667,2.248 10.4,2.488 L10.28,3.584 C10.1626667,4.45333333 9.896,5.084 9.48,5.476 C9.064,5.868 8.45066667,6.06666667 7.64,6.072 L7.048,6.072 C6.344,6.06666667 5.82666667,5.91466667 5.496,5.616 C5.16533333,5.31733333 5,4.848 5,4.208 C5,4.04266667 5.01333333,3.83466667 5.04,3.584 L5.16,2.488 C5.272,1.61866667 5.53733333,0.988 5.956,0.596 C6.37466667,0.204 6.98933333,0.00533333333 7.8,0 L8.392,0 Z M5.976,3.632 C5.95466667,3.84533333 5.944,3.99466667 5.944,4.08 C5.944,4.46933333 6.036,4.75066667 6.22,4.924 C6.404,5.09733333 6.70666667,5.18666667 7.128,5.192 L7.768,5.192 C8.25333333,5.18666667 8.61466667,5.06266667 8.852,4.82 C9.08933333,4.57733333 9.24533333,4.18133333 9.32,3.632 L9.464,2.44 C9.48533333,2.22666667 9.496,2.07733333 9.496,1.992 C9.496,1.60266667 9.404,1.32133333 9.22,1.148 C9.036,0.974666667 8.73333333,0.885333333 8.312,0.88 L7.672,0.88 C7.18666667,0.885333333 6.82533333,1.00933333 6.588,1.252 C6.35066667,1.49466667 6.19466667,1.89066667 6.12,2.44 L5.976,3.632 Z" id="形状"></path>
            <path d="M14.336,0.032 C14.8906667,0.0373333333 15.3186667,0.169333333 15.62,0.428 C15.9213333,0.686666667 16.072,1.05866667 16.072,1.544 C16.072,1.67733333 16.0666667,1.78133333 16.056,1.856 L16.008,2.264 C15.9333333,2.85066667 15.7093333,3.3 15.336,3.612 C14.9626667,3.924 14.464,4.08266667 13.84,4.088 L12.3849159,4.088 C12.2838974,4.088 12.1987381,4.16333014 12.1864106,4.26359362 L11.9895894,5.86440638 C11.9772619,5.96466986 11.8921026,6.04 11.7910841,6.04 L11.2499958,6.04 C11.1395388,6.04 11.0499958,5.95045695 11.0499958,5.84 C11.0499958,5.83187108 11.0504914,5.82374973 11.0514798,5.81568113 L11.7384785,0.207681135 C11.7507658,0.107378867 11.8359424,0.032 11.9369945,0.032 L14.336,0.032 L14.336,0.032 Z M13.968,3.208 C14.2986667,3.20266667 14.552,3.12933333 14.728,2.988 C14.904,2.84666667 15.0133333,2.62133333 15.056,2.312 L15.12,1.824 C15.1253333,1.78666667 15.128,1.736 15.128,1.672 C15.128,1.41066667 15.0573333,1.22 14.916,1.1 C14.7746667,0.98 14.5546667,0.917333333 14.256,0.912 L12.7764802,0.912 C12.6756482,0.912 12.5905848,0.987059987 12.5780352,1.08710796 L12.3402095,2.98310795 C12.326462,3.09270606 12.4041642,3.19269742 12.5137623,3.20644492 C12.5220192,3.20748063 12.5303328,3.208 12.5386544,3.208 L13.968,3.208 L13.968,3.208 Z" id="形状"></path>
        </g>
    </g>
</svg>